<svg width="187" height="185" viewBox="0 0 187 185" fill="none" xmlns="http://www.w3.org/2000/svg">
<g clip-path="url(#clip0_618_294)">
<path d="M29.1903 84.0535C28.2569 84.2652 27.5395 84.6247 27.71 85.591C28.9686 121.549 47.0944 153.816 74.9287 169.649H80.5095V169.65H107.175C135.01 153.818 153.135 121.551 154.394 85.5922C154.564 84.6259 153.847 84.2665 152.914 84.0547H101.594V84.0535H29.1903Z" fill="#7F6C62" stroke="#7F6C62" stroke-width="1.14228"/>
<path d="M89.8565 169.568V169.618H0.404803C-1.38729 169.771 -2.92012 170.157 -2.48789 172.312C-0.640296 179.487 6.1627 184.785 14.3293 184.785H91.5607V184.735H167.088C175.255 184.735 182.058 179.436 183.905 172.261C184.337 170.107 182.805 169.721 181.012 169.568H89.8565Z" fill="#7F6C62" stroke="#7F6C62" stroke-width="1.32924"/>
<path d="M97.1423 102.495C92.4808 102.495 88.7282 104.873 88.7282 107.826V150.725C88.7282 153.678 92.4808 156.056 97.1423 156.056H164.853C169.515 156.056 173.267 153.678 173.267 150.725V107.826C173.267 104.873 169.515 102.495 164.853 102.495H97.1423ZM108.389 111.345H153.606C156.727 111.345 159.24 112.937 159.24 114.914V143.636C159.24 145.614 156.727 147.206 153.606 147.206H108.389C105.268 147.206 102.755 145.614 102.755 143.636V114.914C102.755 112.937 105.268 111.345 108.389 111.345Z" fill="#7F6C62"/>
<path d="M46.0344 77.912C27.429 63.9766 -2.27897 52.37 45.05 24.6046" stroke="#7F6C62" stroke-width="8.18268"/>
<path d="M71.8011 79.4743C86.1804 58.6783 59.1463 30.2282 71.3534 12.031" stroke="#7F6C62" stroke-width="8.56063"/>
<path d="M86.7599 47.3348C81.3123 37.598 109.436 29.7278 104.602 22.0745" stroke="#7F6C62" stroke-width="8.18268"/>
<path d="M81.1295 31.8807C90.3668 27.1052 84.3015 12.2275 95.1599 0.792603" stroke="#7F6C62" stroke-width="7.42677"/>
<path d="M137.588 73.3189C112.218 67.5829 134.371 26.5523 107.827 15.5076" stroke="#7F6C62" stroke-width="6.29291"/>
<path d="M141.731 78.776C139.287 56.4519 160.416 49.1615 165.616 38.554" stroke="#7F6C62" stroke-width="5.53701"/>
</g>
<defs>
<clipPath id="clip0_618_294">
<rect width="187" height="185" fill="white"/>
</clipPath>
</defs>
</svg>
